HIERARCHY
ROOT Bip01_Pelvis
{
	OFFSET 0.000000 0.777098 0.000000
	CHANNELS 6 Xposition Yposition Zposition Zrotation Yrotation Xrotation 
	JOINT BN_Tail_01
	{
		OFFSET -0.000182 0.027754 -0.092053
		CHANNELS 3 Zrotation Yrotation Xrotation
		JOINT BN_Tail_02
		{
			OFFSET -0.000070 0.110061 -0.088292
			CHANNELS 3 Zrotation Yrotation Xrotation
			End Site #name: BN_Tail_03
			{
				OFFSET 0.000055 0.118877 0.068998
			}
		}
	}
	JOINT Bip01_Spine
	{
		OFFSET -0.000059 0.007664 0.172458
		CHANNELS 3 Zrotation Yrotation Xrotation
		JOINT Bip01_R_Thigh
		{
			OFFSET -0.155837 -0.008218 -0.172961
			CHANNELS 3 Zrotation Yrotation Xrotation
			JOINT Bip01_R_Calf
			{
				OFFSET -0.036325 -0.332322 0.123644
				CHANNELS 3 Zrotation Yrotation Xrotation
				JOINT Bip01_R_HorseLink
				{
					OFFSET 0.033051 -0.176272 -0.140556
					CHANNELS 3 Zrotation Yrotation Xrotation
					JOINT Bip01_R_Foot
					{
						OFFSET -0.016272 -0.193599 0.052765
						CHANNELS 3 Zrotation Yrotation Xrotation
						JOINT Bip01_R_Toe0
						{
							OFFSET -0.037145 -0.073653 0.147908
							CHANNELS 3 Zrotation Yrotation Xrotation
							End Site #name: Bip01_R_Toe0Nub
							{
								OFFSET -0.000922 -0.000019 0.003678
							}
						}
					}
				}
			}
		}
		JOINT Bip01_L_Thigh
		{
			OFFSET 0.155844 -0.008898 -0.171872
			CHANNELS 3 Zrotation Yrotation Xrotation
			JOINT Bip01_L_Calf
			{
				OFFSET 0.036519 -0.332323 0.123586
				CHANNELS 3 Zrotation Yrotation Xrotation
				JOINT Bip01_L_HorseLink
				{
					OFFSET -0.033275 -0.176271 -0.140503
					CHANNELS 3 Zrotation Yrotation Xrotation
					JOINT Bip01_L_Foot
					{
						OFFSET 0.016355 -0.193599 0.052739
						CHANNELS 3 Zrotation Yrotation Xrotation
						JOINT Bip01_L_Toe0
						{
							OFFSET 0.037379 -0.073653 0.147849
							CHANNELS 3 Zrotation Yrotation Xrotation
							End Site #name: Bip01_L_Toe0Nub
							{
								OFFSET 0.000927 -0.000019 0.003677
							}
						}
					}
				}
			}
		}
		JOINT Bip01_Spine1
		{
			OFFSET 0.001974 0.108536 0.367310
			CHANNELS 3 Zrotation Yrotation Xrotation
			JOINT Bip01_Neck
			{
				OFFSET 0.000262 0.049851 0.329032
				CHANNELS 3 Zrotation Yrotation Xrotation
				JOINT Bip01_R_Clavicle
				{
					OFFSET -0.034443 -0.080314 -0.202010
					CHANNELS 3 Zrotation Yrotation Xrotation
					JOINT Bip01_R_UpperArm
					{
						OFFSET -0.156118 -0.154817 0.196760
						CHANNELS 3 Zrotation Yrotation Xrotation
						JOINT Bip01_R_Forearm
						{
							OFFSET -0.002483 -0.312774 -0.130851
							CHANNELS 3 Zrotation Yrotation Xrotation
							JOINT Bip01_R_Hand
							{
								OFFSET 0.010478 -0.289945 -0.002435
								CHANNELS 3 Zrotation Yrotation Xrotation
								JOINT Bip01_R_Finger0
								{
									OFFSET -0.010594 -0.029924 0.201571
									CHANNELS 3 Zrotation Yrotation Xrotation
									End Site #name: Bip01_R_Finger0Nub
									{
										OFFSET -0.000190 -0.000538 0.003621
									}
								}
							}
						}
					}
				}
				JOINT Bip01_L_Clavicle
				{
					OFFSET 0.036556 -0.077201 -0.202850
					CHANNELS 3 Zrotation Yrotation Xrotation
					JOINT Bip01_L_UpperArm
					{
						OFFSET 0.156430 -0.154818 0.196511
						CHANNELS 3 Zrotation Yrotation Xrotation
						JOINT Bip01_L_Forearm
						{
							OFFSET 0.002275 -0.312774 -0.130854
							CHANNELS 3 Zrotation Yrotation Xrotation
							JOINT Bip01_L_Hand
							{
								OFFSET -0.010481 -0.289944 -0.002418
								CHANNELS 3 Zrotation Yrotation Xrotation
								JOINT Bip01_L_Finger0
								{
									OFFSET 0.010914 -0.029924 0.201554
									CHANNELS 3 Zrotation Yrotation Xrotation
									End Site #name: Bip01_L_Finger0Nub
									{
										OFFSET 0.000196 -0.000538 0.003620
									}
								}
							}
						}
					}
				}
				JOINT Bip01_Neck1
				{
					OFFSET 0.001273 0.018281 0.106341
					CHANNELS 3 Zrotation Yrotation Xrotation
					JOINT Bip01_Head
					{
						OFFSET 0.000075 0.033553 0.094584
						CHANNELS 3 Zrotation Yrotation Xrotation
						End Site #name: BN_Ear_L_01
						{
							OFFSET 0.171172 0.091035 0.105374
						}
						End Site #name: BN_Ear_R_01
						{
							OFFSET -0.170996 0.091051 0.105644
						}
						JOINT BN_Mouth_01
						{
							OFFSET 0.000109 -0.203475 0.147096
							CHANNELS 3 Zrotation Yrotation Xrotation
							JOINT BN_Tongue_01
							{
								OFFSET 0.000088 -0.068194 0.111289
								CHANNELS 3 Zrotation Yrotation Xrotation
								End Site #name: BN_Tongue_02
								{
									OFFSET 0.000057 -0.020362 0.072269
								}
							}
						}
						End Site #name: Bip01_HeadNub
						{
							OFFSET 0.000359 -0.183252 0.458710
						}
					}
				}
			}
		}
	}
}
MOTION
Frames: 10
Frame Time: 0.041667
-0.018917 0.023724 -0.048316 40.409000 -19.448724 -37.305600 -19.885555 -27.141624 -40.704049 3.688264 24.040165 -112.613026 20.174227 -13.602845 -4.720771 49.125519 11.835666 30.425186 6.760505 -5.614578 3.196185 7.696498 0.296392 14.176474 1.310822 -9.370116 34.358989 15.623004 -1.408447 56.519141 13.470182 13.860276 24.341300 8.049556 -13.759112 15.854974 15.415090 4.827202 -18.242857 -20.320471 -15.162818 28.072534 -6.848786 18.658549 68.687589 -10.554885 38.352864 28.170632 -42.439634 27.401563 28.419233 2.351425 9.796138 -5.122526 41.455873 24.017141 -110.089978 13.366783 -1.194437 12.925319 53.830226 13.674061 123.928187 2.443449 -13.303000 -56.101891 34.738254 11.039998 -45.117190 20.725081 1.926221 -50.055418 -28.185098 -5.614614 -19.317024 16.354049 18.662309 83.030838 1.590817 12.351218 -7.070116 0.446173 -1.644976 3.632601 7.632857 10.403761 -51.573804 2.631668 4.169504 21.782807 -1.045684 -5.111146 -5.125034 
-0.019316 0.025409 -0.048769 39.638612 -19.923431 -36.583927 -19.415636 -26.600771 -40.194846 8.610963 28.883610 -114.895482 21.694346 -13.421484 -5.559623 49.017616 11.682838 30.996010 6.837602 -5.728413 3.484017 7.486479 0.366925 13.551820 1.337887 -9.351923 34.451331 16.107119 -1.041365 57.231399 13.046761 14.017487 24.644430 7.845990 -13.656543 15.929278 15.444728 4.815862 -18.196279 -20.447993 -15.139263 28.341716 -5.888901 19.649309 66.638937 -10.514903 37.830321 28.710698 -42.660668 28.194185 28.786948 2.906671 9.314415 -4.148202 44.058616 25.525763 -109.599672 13.179972 -1.254202 13.988929 50.560766 11.615806 125.189336 0.654368 -8.453930 -56.741323 34.787214 11.085136 -44.920856 21.478765 2.111002 -51.087293 -28.474233 -5.735472 -19.415606 13.176398 16.322839 81.998667 1.520821 12.722268 -9.413266 0.682146 -2.357902 3.632869 6.109004 11.094066 -52.225638 2.114108 3.523966 20.554979 -1.158648 -5.266386 -3.968237 
-0.019659 0.025772 -0.049187 39.295346 -20.041108 -35.849900 -19.188254 -26.356488 -40.327367 11.810470 32.369908 -116.599590 22.162476 -13.364640 -6.334119 49.151408 11.493890 31.432855 6.725063 -5.655223 3.538280 7.810214 0.412100 13.680243 0.703602 -9.893964 34.051456 16.538702 -1.021525 58.284716 13.056157 14.125901 25.005822 7.906603 -13.606761 15.595882 15.437164 4.757983 -17.603353 -20.231663 -14.833982 28.368467 -5.725949 19.632896 65.279974 -10.321324 37.333656 29.178579 -43.034132 29.346594 28.537382 3.166955 8.695548 -3.414601 46.231654 26.698233 -109.180576 12.874659 -1.245883 14.443902 47.510959 9.997726 125.956730 -0.884141 -4.319576 -56.784595 34.716034 10.529250 -45.137040 22.542027 2.320468 -51.846714 -28.847835 -5.869244 -19.300289 10.463656 14.458092 80.121327 1.491933 12.860274 -10.497429 0.973111 -3.220147 3.612059 5.213627 11.413539 -52.875763 1.653050 2.885760 19.910121 -1.148427 -5.226964 -3.896181 
-0.019951 0.027463 -0.049589 38.870484 -20.401649 -35.433701 -18.792984 -25.888226 -39.841903 15.093403 36.713947 -119.379244 23.124639 -13.151937 -7.025832 49.131989 11.346738 31.951262 6.747315 -5.702945 3.244107 7.601254 0.389294 13.804545 0.214783 -10.116382 32.949193 17.132798 -1.023208 59.700400 12.981903 14.333117 25.416340 8.124532 -13.923746 15.572408 15.241390 4.643001 -17.496946 -20.268636 -15.051616 28.125572 -5.312040 19.994617 63.808043 -10.339789 37.011555 29.802772 -42.425436 30.238212 28.886671 3.418926 7.734729 -2.471888 48.474920 28.000860 -108.439370 12.597168 -1.274628 15.376444 44.040379 8.877511 125.793694 -2.455905 0.007570 -55.382827 34.402838 9.870144 -44.986489 23.472989 2.459485 -52.856183 -29.064650 -5.828742 -19.249841 8.532663 12.975943 79.136012 1.438566 12.866120 -11.522315 1.158697 -3.790612 3.683731 3.925615 11.223353 -53.583806 1.112159 2.114818 19.226667 -1.033795 -4.648952 -3.591920 
-0.020216 0.028785 -0.049970 38.333225 -20.774329 -35.149360 -18.381658 -25.377877 -39.088329 24.211563 41.121980 -115.872286 24.162534 -13.105418 -7.361048 48.835186 11.242924 32.353127 6.927620 -5.900024 3.450541 7.737256 0.448265 13.598123 0.005632 -10.222468 32.505975 17.350639 -1.332007 60.637311 12.526167 14.462108 25.669497 8.168948 -13.979450 15.471606 15.382255 4.665898 -17.092085 -19.953633 -15.194880 27.329792 -4.678746 20.915164 63.797214 -10.110398 35.919496 30.400333 -43.097762 31.485594 29.156836 3.466229 7.518517 -2.272531 49.888846 28.791682 -108.330635 12.401104 -1.288200 15.952336 41.361893 7.789601 125.942856 -3.830059 4.144175 -54.555185 34.316745 9.417907 -45.082974 24.773039 2.734529 -53.890184 -29.138001 -5.894766 -19.197860 6.585529 11.463360 77.911615 1.438373 13.251387 -12.265911 1.376279 -4.288163 2.987078 2.620515 11.367880 -53.936502 0.322245 0.883185 18.710572 -0.814941 -3.711472 -3.467572 
-0.020507 0.030311 -0.050348 37.834424 -20.739414 -34.844300 -18.125471 -25.065140 -38.653120 33.943700 45.260842 -112.006285 24.879725 -13.325466 -7.894642 48.496423 11.063245 32.785909 7.074505 -6.070684 3.684365 7.630970 0.508608 13.084119 0.093849 -10.066758 32.273214 16.912499 -2.600697 61.268600 12.307029 14.567647 25.994855 8.045738 -13.895776 15.463504 15.583851 4.727661 -16.931865 -20.071299 -15.680522 26.869697 -3.859249 22.117008 63.813625 -9.894179 35.097456 30.979661 -43.645168 33.031459 29.428611 3.811402 7.008426 -1.525000 51.765215 29.908865 -108.312880 12.145342 -1.292449 16.561514 37.243629 6.208157 126.088138 -5.329128 9.115317 -53.096248 34.137226 8.511866 -45.407915 26.497365 3.107316 -55.047091 -29.720114 -6.096915 -19.009129 4.699263 10.008114 76.208896 1.452738 13.592337 -12.729675 1.600858 -4.869227 2.732518 1.908460 11.160916 -54.457092 -0.310274 -0.148317 17.530969 -0.791070 -3.475302 -2.930056 
-0.020815 0.032074 -0.050749 37.926508 -20.402876 -34.765824 -17.966988 -24.884532 -38.399891 55.035347 47.631069 -96.742772 24.749326 -13.452687 -8.270858 48.643303 10.817518 33.320538 6.949539 -5.990736 3.764703 7.518540 0.564842 12.608189 -0.131465 -10.295637 32.267770 17.072267 -2.768548 61.857921 12.291695 14.616842 26.207434 8.042372 -13.938578 15.493646 15.532906 4.706291 -17.131720 -20.269356 -15.351721 27.699313 -2.842402 23.455440 62.011194 -9.512000 33.865578 31.370712 -44.374738 34.182374 29.545221 4.143599 6.617409 -0.884380 54.358507 30.897897 -107.171289 12.148586 -1.333562 17.121678 33.721168 4.730655 126.719525 -6.552510 13.531297 -51.795423 34.030742 8.357442 -45.162270 27.378304 3.380360 -55.944775 -29.627286 -6.271211 -19.297118 2.831286 8.485932 74.415701 1.547471 14.625811 -12.406035 1.751243 -5.105066 1.986987 0.851988 11.042282 -54.692945 -0.696369 -0.843337 16.962589 -0.696731 -2.970851 -2.347911 
-0.021136 0.034682 -0.051158 37.588662 -19.783220 -34.258214 -18.241360 -25.167920 -38.371130 85.615845 40.898071 -73.025079 25.266415 -13.759289 -9.151962 48.336212 10.602249 33.810752 7.012204 -6.086581 3.858915 7.109442 0.577505 12.082629 0.019974 -10.366164 33.291621 17.019097 -2.653556 61.416783 12.006751 14.658626 26.380248 7.740384 -13.730712 15.654420 15.842851 4.829298 -17.053732 -20.612444 -15.700332 27.849339 -2.135989 24.393619 60.110642 -9.187684 32.543071 31.923261 -44.671590 35.658480 29.890898 4.220390 5.270742 0.146774 57.785639 32.250068 -105.548970 12.037708 -1.380000 18.043827 29.780804 2.751672 128.981474 -7.754651 17.433521 -51.430507 33.696087 7.295995 -45.366508 28.720814 3.603235 -56.468055 -29.485283 -6.384734 -19.578685 1.282354 7.106266 73.296471 1.611940 15.676304 -12.600136 2.160550 -6.110864 1.627744 -0.564946 11.044595 -54.947098 -1.279766 -1.865362 16.497108 -0.506961 -2.207729 -2.231232 
-0.021412 0.035494 -0.051554 37.115567 -19.544296 -33.697419 -18.477614 -25.367550 -38.153603 107.771723 24.517105 -56.967468 25.582629 -14.091476 -9.766093 48.425979 10.327856 34.294292 6.742922 -5.879714 4.092609 7.345424 0.722931 11.278898 -0.042200 -10.447935 33.377851 17.036519 -3.100825 62.101819 11.974668 14.657181 26.561346 7.234847 -13.268929 15.795687 16.215883 4.993032 -17.204067 -20.837550 -15.436110 28.635300 -1.541550 25.249276 58.675898 -8.901383 31.605485 32.342726 -44.772973 36.949513 30.218471 4.164769 4.739609 0.441321 59.413770 32.943065 -105.085607 11.937236 -1.382401 18.329593 26.387990 1.430325 129.894215 -8.388364 21.135697 -49.284337 33.448591 6.405667 -45.529000 30.016700 3.842076 -57.041971 -29.250241 -6.569699 -20.132321 0.032656 5.999144 71.656339 1.754387 16.669649 -11.681617 2.421045 -6.559991 0.813255 -1.356246 10.581362 -55.085603 -1.761114 -2.742282 16.132322 -0.222702 -1.136113 -2.414560 
-0.021679 0.036908 -0.051937 37.296734 -18.897320 -33.320273 -18.673777 -25.566462 -38.138302 120.986177 0.094502 -46.704339 25.671329 -14.175390 -10.498481 48.030736 10.212627 34.662988 6.685406 -5.862790 4.164626 7.335501 0.830173 10.473883 0.214535 -10.266449 33.770851 16.565537 -4.377141 62.711614 11.581761 14.673285 26.504301 7.152896 -13.207691 15.827992 16.235783 4.989681 -16.993790 -20.997204 -15.356313 29.040510 -0.970521 26.081032 56.745695 -8.664705 30.150080 32.780964 -44.068623 37.426614 31.397285 3.303922 3.098427 0.693962 63.673612 33.812486 -101.683739 11.801854 -1.417586 19.221840 19.171468 -0.709357 130.485613 -9.399808 27.650700 -46.160918 32.956840 5.857012 -45.062968 30.973251 3.908840 -57.282071 -28.290469 -6.561193 -21.315839 -0.673770 5.280564 70.565151 1.843971 17.501229 -11.078853 2.555701 -6.598137 -0.271951 -3.467447 9.990375 -54.904169 -2.215829 -3.612862 15.479541 0.006303 -0.262702 -2.424981 
